<?xml version="1.0" standalone="no"?>
<!DOCTYPE svg PUBLIC "-//W3C//DTD SVG 20010904//EN"
 "http://www.w3.org/TR/2001/REC-SVG-20010904/DTD/svg10.dtd">
<svg version="1.0" xmlns="http://www.w3.org/2000/svg"
 width="256.000000pt" height="256.000000pt" viewBox="0 0 256.000000 256.000000"
 preserveAspectRatio="xMidYMid meet">
<metadata>
Created by potrace 1.15, written by Peter Selinger 2001-2017
</metadata>
<g transform="translate(0.000000,256.000000) scale(0.100000,-0.100000)"
fill="#000000" stroke="none">
<path d="M413 2529 c-26 -10 -44 -35 -73 -109 -43 -106 -79 -122 -218 -100
-46 8 -68 7 -85 -1 -51 -27 -49 -58 8 -138 81 -116 83 -206 5 -366 -22 -45
-40 -92 -40 -104 0 -24 33 -61 54 -61 7 0 42 9 76 20 144 46 231 6 310 -141
39 -74 55 -89 89 -89 42 0 54 23 66 118 5 47 15 87 20 89 13 4 151 -111 159
-133 3 -9 -9 -43 -28 -77 -81 -146 -122 -332 -112 -502 24 -423 302 -766 710
-878 68 -18 107 -22 241 -22 136 0 173 3 244 23 334 91 594 353 677 680 132
522 -172 1035 -691 1168 -180 46 -395 33 -572 -34 -28 -11 -56 -16 -62 -13 -6
4 -27 43 -46 86 -55 122 -56 123 -86 135 -29 12 -92 0 -104 -21 -13 -20 -43
-7 -75 32 l-32 41 44 41 c54 50 66 79 44 111 -14 22 -22 24 -143 28 -178 7
-220 29 -288 155 -32 59 -56 76 -92 62z m70 -225 c46 -42 105 -70 165 -80 23
-4 45 -10 47 -15 7 -10 -43 -49 -62 -49 -29 0 -74 -32 -98 -71 -37 -57 -51
-59 -95 -10 -30 33 -44 41 -72 41 -47 0 -73 -30 -72 -80 2 -68 87 -154 166
-166 21 -4 41 -10 43 -14 3 -5 0 -32 -6 -60 l-11 -52 -32 30 c-48 46 -113 74
-183 80 -35 2 -63 6 -63 8 0 2 7 29 15 61 19 73 19 166 0 229 -8 27 -15 49
-15 50 0 1 23 4 51 7 66 8 130 46 154 91 11 20 21 36 24 36 2 0 22 -16 44 -36z
m265 -210 c48 -24 112 -94 112 -123 0 -16 -63 -57 -68 -43 -9 27 -49 78 -73
91 -38 21 -76 7 -130 -49 -26 -27 -59 -52 -73 -56 -37 -9 -92 13 -137 56 -34
32 -40 44 -37 72 4 47 29 47 74 -2 33 -35 43 -41 73 -38 28 2 42 12 69 48 59
77 103 88 190 44z m1126 -488 c18 -8 45 -30 60 -49 51 -66 47 -154 -10 -216
-84 -94 -231 -67 -279 51 -55 139 88 273 229 214z"/>
</g>
</svg>
